<svg width="71" height="71" viewBox="0 0 71 71" fill="none" xmlns="http://www.w3.org/2000/svg">
<path d="M35.1865 43.0758C38.2294 43.0758 40.6961 40.609 40.6961 37.5661C40.6961 34.5232 38.2294 32.0564 35.1865 32.0564C32.1435 32.0564 29.6768 34.5232 29.6768 37.5661C29.6768 40.609 32.1435 43.0758 35.1865 43.0758Z" fill="white"/>
<path d="M42.074 24.0422H28.2998C26.2962 24.0422 24.5432 24.6683 23.4162 25.7953C22.2892 26.9223 21.6631 28.6754 21.6631 30.6789V44.4532C21.6631 46.4567 22.2892 48.2098 23.5414 49.462C24.7936 50.589 26.4215 51.2151 28.425 51.2151H42.074C44.0776 51.2151 45.8306 50.589 46.9576 49.462C48.2098 48.335 48.8359 46.5819 48.8359 44.5784V30.8041C48.8359 28.8006 48.2098 27.1727 47.0828 25.9205C45.8306 24.6683 44.2028 24.0422 42.074 24.0422ZM35.1869 46.081C30.4285 46.081 26.6719 42.1992 26.6719 37.566C26.6719 32.8077 30.5537 29.0511 35.1869 29.0511C39.8201 29.0511 43.8271 32.8077 43.8271 37.566C43.8271 42.3244 39.9453 46.081 35.1869 46.081ZM44.0776 30.6789C42.9506 30.6789 42.074 29.8024 42.074 28.6754C42.074 27.5484 42.9506 26.6719 44.0776 26.6719C45.2045 26.6719 46.0811 27.5484 46.0811 28.6754C46.0811 29.8024 45.2045 30.6789 44.0776 30.6789Z" fill="white"/>
<path d="M35.437 6.51147C18.4071 6.51147 4.63281 20.2857 4.63281 37.3157C4.63281 54.3457 18.4071 68.1199 35.437 68.1199C52.467 68.1199 66.2413 54.3457 66.2413 37.3157C66.3665 20.2857 52.467 6.51147 35.437 6.51147ZM51.8409 44.5785C51.8409 47.4586 50.8392 49.963 49.0861 51.7161C47.333 53.4691 44.8286 54.3457 42.0737 54.3457H28.4247C25.6698 54.3457 23.1654 53.4691 21.4124 51.7161C19.534 49.963 18.6575 47.4586 18.6575 44.5785V30.8042C18.6575 25.0441 22.5393 21.037 28.4247 21.037H42.1989C45.079 21.037 47.4582 22.0388 49.2113 23.7919C50.9644 25.545 51.8409 27.9242 51.8409 30.8042V44.5785Z" fill="white"/>
</svg>
