<svg width="23" height="23" viewBox="0 0 23 23" fill="none" xmlns="http://www.w3.org/2000/svg">
<path d="M21.3521 11.3514L12.0083 2.00765C11.7273 1.72662 11.2731 1.72662 10.992 2.00765L1.64827 11.3514C1.36724 11.6324 1.36724 12.0867 1.64827 12.3677C1.9293 12.6487 2.38355 12.6487 2.66459 12.3677L11.5002 3.53212L17.2602 9.29218C17.2595 9.31015 17.2502 9.32596 17.2502 9.34393V20.1252H5.75018V12.9377C5.75018 12.5402 5.42818 12.2189 5.03143 12.2189C4.63468 12.2189 4.31268 12.5402 4.31268 12.9377V20.8439C4.31268 21.2414 4.63468 21.5627 5.03143 21.5627H17.9689C18.3664 21.5627 18.6877 21.2414 18.6877 20.8439V10.7196L20.3358 12.3677C20.4759 12.5079 20.6599 12.5783 20.8439 12.5783C21.0279 12.5783 21.2119 12.5079 21.3521 12.3677C21.6331 12.0867 21.6331 11.6324 21.3521 11.3514Z" fill="#808080"/>
</svg>
