<svg width="62" height="62" viewBox="0 0 62 62" fill="none" xmlns="http://www.w3.org/2000/svg">
<g clip-path="url(#clip0_403_4218)">
<path fill-rule="evenodd" clip-rule="evenodd" d="M30.8816 61.9998L30.9093 61.9999H30.8997L30.8816 61.9998ZM31.1003 61.9999H31.0907L31.1184 61.9998L31.1003 61.9999ZM30.7869 61.9993L30.8168 61.9994H30.7996L30.7869 61.9993ZM31.2004 61.9994H31.1832L31.2131 61.9993L31.2004 61.9994ZM30.6956 61.9985L30.7156 61.9987L30.6996 61.9985H30.6956ZM31.3004 61.9985L31.2844 61.9987L31.3044 61.9985H31.3004ZM31.4005 61.9975L31.3934 61.9976L31.4204 61.9972L31.4005 61.9975ZM30.5796 61.9972L30.6066 61.9976L30.5995 61.9975L30.5796 61.9972ZM31.5004 61.996L31.484 61.9962L31.5173 61.9958L31.5004 61.996ZM30.4827 61.9958L30.516 61.9962L30.4996 61.996L30.4827 61.9958ZM31.6001 61.9943L31.5781 61.9947L31.6089 61.9941L31.6001 61.9943ZM30.3911 61.9941L30.4219 61.9947L30.3999 61.9943L30.3911 61.9941ZM30.2777 61.9918L30.3049 61.9924L30.3001 61.9922L30.2777 61.9918ZM31.6999 61.9922L31.6951 61.9924L31.7223 61.9918L31.6999 61.9922ZM30.1781 61.9892L30.2156 61.9902L30.2004 61.9898L30.1781 61.9892ZM31.7996 61.9898L31.7844 61.9902L31.8219 61.9892L31.7996 61.9898ZM31.8992 61.9872L31.8749 61.9879L31.9132 61.9868L31.8992 61.9872ZM30.0868 61.9868L30.1251 61.9879L30.1008 61.9872L30.0868 61.9868ZM29.9996 61.9841L30.0269 61.985L30.0012 61.9841L29.9777 61.9834L29.9996 61.9841ZM31.9988 61.9841L31.9731 61.985L32.0004 61.9841L32.0223 61.9834L31.9988 61.9841ZM32.0982 61.9809L32.0846 61.9813L32.1264 61.9799L32.0982 61.9809ZM29.8736 61.9799L29.9154 61.9813L29.9018 61.9809L29.8736 61.9799ZM29.7829 61.9765L29.8267 61.9781L29.8024 61.9772L29.7829 61.9765ZM32.1976 61.9772L32.1733 61.9781L32.2171 61.9765L32.1976 61.9772ZM29.6939 61.9729L29.7367 61.9747L29.7032 61.9734L29.6939 61.9729ZM32.2968 61.9734L32.2633 61.9747L32.3061 61.9729L32.2968 61.9734ZM29.5692 61.9674L29.6152 61.9695L29.6039 61.9691L29.5692 61.9674ZM32.3961 61.9691L32.3848 61.9695L32.4308 61.9674L32.3961 61.9691ZM29.4797 61.9633L29.5274 61.9655L29.5049 61.9645L29.4797 61.9633ZM32.4951 61.9645L32.4726 61.9655L32.5203 61.9633L32.4951 61.9645ZM29.3915 61.9588L29.4396 61.9612L29.4058 61.9597L29.3915 61.9588ZM32.5942 61.9597L32.5604 61.9612L32.6085 61.9588L32.5942 61.9597ZM32.6933 61.9545L32.6494 61.9568L32.6883 61.9547L32.7341 61.9522L32.6933 61.9545ZM29.3117 61.9547L29.3506 61.9568L29.3067 61.9545L29.2659 61.9522L29.3117 61.9547ZM32.7921 61.9489L32.7727 61.95L32.8219 61.9472L32.7921 61.9489ZM29.1781 61.9472L29.2273 61.95L29.2079 61.9489L29.1781 61.9472ZM29.0907 61.942L29.1398 61.9449L29.1091 61.9432L29.0907 61.942ZM32.8909 61.9432L32.8602 61.9449L32.9093 61.942L32.8909 61.9432ZM29.0073 61.9368L29.0515 61.9396L29.0103 61.937L28.9689 61.9344L29.0073 61.9368ZM32.9897 61.937L32.9485 61.9396L32.9927 61.9368L33.0311 61.9344L32.9897 61.937ZM33.0883 61.9306L33.0735 61.9316L33.1204 61.9284L33.0883 61.9306ZM28.8796 61.9284L28.9265 61.9316L28.9117 61.9306L28.8796 61.9284ZM28.7923 61.9224L28.8384 61.9256L28.8132 61.924L28.7923 61.9224ZM33.1868 61.924L33.1616 61.9256L33.2077 61.9224L33.1868 61.924ZM28.7053 61.9162L28.7475 61.9192L28.7147 61.9169L28.7053 61.9162ZM33.2853 61.9169L33.2525 61.9192L33.2947 61.9162L33.2853 61.9169ZM28.5882 61.9074L28.6252 61.9101L28.6163 61.9095L28.5882 61.9074ZM33.3837 61.9095L33.3748 61.9101L33.4118 61.9074L33.3837 61.9095ZM33.4819 61.9019L33.4643 61.9032L33.5019 61.9002L33.4819 61.9019ZM28.4981 61.9002L28.5357 61.9032L28.5181 61.9019L28.4981 61.9002ZM28.4103 61.8931L28.4423 61.8957L28.4197 61.8939L28.4103 61.8931ZM33.5803 61.8939L33.5577 61.8957L33.5897 61.8931L33.5803 61.8939ZM28.3137 61.885L28.3232 61.8858L28.3216 61.8857L28.3137 61.885ZM33.6784 61.8857L33.6768 61.8858L33.6863 61.885L33.6784 61.8857ZM33.7764 61.8771L33.7677 61.8778L33.7896 61.8759L33.7764 61.8771ZM28.2104 61.8759L28.2323 61.8778L28.2236 61.8771L28.2104 61.8759ZM28.1195 61.8676L28.1359 61.8692L28.1257 61.8682L28.1195 61.8676ZM33.8743 61.8682L33.8641 61.8692L33.8805 61.8676L33.8743 61.8682ZM26.1562 61.623C11.3442 59.2949 0 46.4617 0 31C0 13.8907 13.8907 0 31 0C48.1093 0 62 13.8907 62 31C62 46.4617 50.6558 59.2949 35.8438 61.623V39.9609H43.067L44.4414 31H35.8438V25.185C35.8438 22.7334 37.0448 20.3437 40.8957 20.3437H44.8047V12.7148C44.8047 12.7148 41.2571 12.1094 37.8654 12.1094C30.7843 12.1094 26.1562 16.4009 26.1562 24.1703V31H18.2852V39.9609H26.1562V61.623Z" fill="white"/>
</g>
<defs>
<clipPath id="clip0_403_4218">
<rect width="62" height="62" fill="white"/>
</clipPath>
</defs>
</svg>
