<svg width="62" height="62" viewBox="0 0 62 62" fill="none" xmlns="http://www.w3.org/2000/svg">
<path fill-rule="evenodd" clip-rule="evenodd" d="M31 0C48.1093 0 62 13.8907 62 31C62 48.1093 48.1093 62 31 62C13.8907 62 0 48.1093 0 31C0 13.8907 13.8907 0 31 0ZM45.7162 16.3288C42.0051 12.6146 37.0699 10.5682 31.8119 10.5662C20.9779 10.5662 12.1604 19.3803 12.1561 30.2143C12.1547 33.6775 13.0597 37.0581 14.7797 40.0377L11.9912 50.22L22.4111 47.4876C25.282 49.053 28.5143 49.8779 31.8041 49.8794H31.8122C42.6451 49.8794 51.4634 41.0641 51.4677 30.23C51.4698 24.9796 49.4272 20.0427 45.7162 16.3288ZM31.8121 46.5607H31.8055C28.874 46.5595 25.9987 45.7722 23.4904 44.2842L22.8937 43.9301L16.7106 45.5517L18.361 39.525L17.9725 38.9072C16.3371 36.3069 15.4735 33.3014 15.4747 30.2156C15.4783 21.2108 22.8072 13.8847 31.8186 13.8847C36.1822 13.8864 40.284 15.5876 43.3685 18.6745C46.453 21.7615 48.1508 25.8649 48.1491 30.2288C48.1454 39.2341 40.8167 46.5605 31.8121 46.5607ZM40.7734 34.329C40.2822 34.0833 37.8676 32.8955 37.4172 32.7316C36.9671 32.5678 36.6398 32.4858 36.3124 32.9773C35.9849 33.4689 35.0437 34.5748 34.7572 34.9025C34.4708 35.23 34.1843 35.2712 33.6931 35.0253C33.202 34.7797 31.6195 34.2612 29.7437 32.5884C28.2836 31.2866 27.2979 29.6786 27.0114 29.1872C26.725 28.6957 26.9809 28.43 27.2268 28.1852C27.4477 27.9653 27.7179 27.6118 27.9635 27.325C28.209 27.0383 28.2909 26.8335 28.4546 26.506C28.6183 26.1782 28.5365 25.8915 28.4137 25.6457C28.2909 25.4 27.3087 22.9834 26.8994 22.0003C26.5009 21.0429 26.0959 21.1725 25.7944 21.1575C25.5083 21.1432 25.1806 21.1402 24.8532 21.1402C24.5257 21.1402 23.9938 21.2631 23.5434 21.7546C23.0933 22.2461 21.8246 23.4339 21.8246 25.8505C21.8246 28.2672 23.5845 30.6017 23.83 30.9295C24.0756 31.2572 27.2932 36.2164 32.2199 38.343C33.3916 38.8488 34.3065 39.1509 35.0197 39.3773C36.1963 39.7508 37.2668 39.6982 38.1132 39.5717C39.0567 39.4308 41.0189 38.3839 41.4281 37.2372C41.8373 36.0903 41.8373 35.1073 41.7146 34.9025C41.5918 34.6977 41.2644 34.5748 40.7734 34.329Z" fill="white"/>
</svg>
