<svg width="62" height="62" viewBox="0 0 62 62" fill="none" xmlns="http://www.w3.org/2000/svg">
<path d="M31 0C15.6937 0 0 3.29375 0 27.125C0 39.9125 4.45625 47.8563 13.5625 51.5375V58.7062C13.5625 60.0625 14.3375 61.225 15.5 61.8062C15.8875 62 16.4688 62 16.8562 62C17.6313 62 18.6 61.6125 19.1812 61.0312L26.1562 54.0562C27.7062 54.0562 29.2563 54.25 31 54.25C46.3063 54.25 62 50.9562 62 27.125C62 3.29375 46.3063 0 31 0ZM30.0312 19.7625C33.5187 19.7625 36.425 22.6688 36.425 26.1562C36.425 27.3188 35.65 28.0938 34.4875 28.0938C33.325 28.0938 32.55 27.3188 32.55 26.1562C32.55 24.8 31.3875 23.6375 30.0312 23.6375C28.8687 23.6375 28.0938 22.8625 28.0938 21.7C28.0938 20.5375 28.8687 19.7625 30.0312 19.7625ZM28.0938 15.6938C28.0938 14.5313 28.8687 13.7562 30.0312 13.7562C36.8125 13.7562 42.4312 19.375 42.4312 26.1562C42.4312 27.3188 41.6562 28.0938 40.4937 28.0938C39.3312 28.0938 38.5562 27.3188 38.5562 26.1562C38.5562 21.5063 34.6813 17.6313 30.0312 17.6313C28.8687 17.6313 28.0938 16.6625 28.0938 15.6938ZM43.9813 39.7188C43.2063 42.0438 40.3 43.9813 37.7812 44.3687C37.2 44.5625 36.6188 44.5625 35.8438 44.5625C34.2938 44.5625 31.9688 44.175 27.9 42.4312C23.25 40.4937 18.6 36.425 14.9187 31.1938V31C13.7562 29.2563 11.625 25.9625 11.625 22.475C11.625 18.2125 13.7563 16.0813 14.5312 15.1125C15.6938 14.1438 17.05 13.5625 18.6 13.5625C18.9875 13.5625 19.1813 13.5625 19.5688 13.5625C20.925 13.5625 21.8938 13.95 22.8625 15.8875L23.6375 17.4375C24.2188 18.9875 24.9937 20.7313 25.1875 20.925C25.7687 22.0875 25.7687 23.0562 25.1875 24.025C24.9937 24.6062 24.6063 24.9938 24.2188 25.3813C24.025 25.7688 23.8312 25.9625 23.6375 25.9625C23.4438 26.1562 23.4438 26.1562 23.25 26.35C23.8312 27.3188 24.9937 29.0625 26.5437 30.4187C28.8687 32.55 30.6125 33.1312 31.5812 33.5187C31.9687 33.1312 32.3563 32.3563 32.9375 31.775L33.1313 31.3875C34.1 30.0313 35.65 29.6438 37.2 30.225C37.975 30.6125 42.2375 32.55 42.2375 32.55L42.625 32.7437C43.2062 33.1312 43.9813 33.325 44.3687 34.1C44.95 35.8438 44.3688 38.3625 43.9813 39.7188ZM46.5 28.0938C45.3375 28.0938 44.5625 27.3188 44.5625 26.1562C44.5625 18.2125 37.975 11.625 30.0312 11.625C28.8687 11.625 28.0938 10.85 28.0938 9.6875C28.0938 8.525 28.8687 7.75 30.0312 7.75C40.1063 7.75 48.4375 16.0813 48.4375 26.1562C48.4375 27.3188 47.6625 28.0938 46.5 28.0938Z" fill="white"/>
</svg>
