<svg width="62" height="62" viewBox="0 0 62 62" fill="none" xmlns="http://www.w3.org/2000/svg">
<path d="M31 0C13.8792 0 0 13.8792 0 31C0 48.1208 13.8792 62 31 62C48.1208 62 62 48.1208 62 31C62 13.8792 48.1208 0 31 0ZM47.1126 19.6094L41.6067 45.8945C41.5401 46.2125 41.3947 46.5085 41.1838 46.7556C40.9729 47.0026 40.7033 47.1927 40.3997 47.3083C40.0962 47.424 39.7685 47.4615 39.4466 47.4175C39.1248 47.3734 38.8192 47.2492 38.5579 47.0562L30.5493 41.1394L25.6973 45.7168C25.6338 45.7767 25.559 45.8234 25.4772 45.854C25.3955 45.8847 25.3085 45.8988 25.2212 45.8955C25.134 45.8922 25.0482 45.8715 24.9691 45.8347C24.8899 45.7979 24.8188 45.7457 24.76 45.6812L24.6558 45.5666L25.4988 37.4079L40.6942 23.5244C40.7693 23.4559 40.816 23.3616 40.8251 23.2603C40.8342 23.159 40.805 23.058 40.7433 22.9772C40.6815 22.8963 40.5918 22.8416 40.4916 22.8237C40.3915 22.8058 40.2883 22.8261 40.2024 22.8805L20.7694 35.18L12.4 32.3692C12.1775 32.2944 11.9835 32.1527 11.8447 31.9633C11.706 31.7739 11.6292 31.5463 11.625 31.3116C11.6207 31.0768 11.6892 30.8465 11.821 30.6523C11.9529 30.458 12.1416 30.3093 12.3612 30.2266L45.1074 17.8909C45.36 17.7958 45.6335 17.7704 45.8993 17.8172C46.1651 17.864 46.4135 17.9813 46.6184 18.157C46.8233 18.3326 46.9773 18.5601 47.0643 18.8156C47.1512 19.0711 47.1679 19.3453 47.1126 19.6094Z" fill="white"/>
</svg>
