<svg width="84" height="84" viewBox="0 0 84 84" fill="none" xmlns="http://www.w3.org/2000/svg">
<path d="M10.1723 32.8787C10.1724 32.3983 10.3168 31.9288 10.5873 31.5295C10.8579 31.1301 11.2423 30.8189 11.692 30.6352C12.1418 30.4515 12.6366 30.4036 13.114 30.4974C13.5914 30.5913 14.0298 30.8227 14.3739 31.1625L42.9684 59.3807L71.5628 31.1625C72.027 30.7201 72.6486 30.4753 73.2938 30.4808C73.9391 30.4864 74.5563 30.7418 75.0126 31.1921C75.4689 31.6423 75.7277 32.2515 75.7333 32.8882C75.7389 33.525 75.4909 34.1384 75.0426 34.5965L44.7074 64.5325C44.2459 64.9877 43.6201 65.2435 42.9675 65.2435C42.315 65.2435 41.6892 64.9877 41.2277 64.5325L10.8925 34.5965C10.664 34.3708 10.4828 34.103 10.3592 33.8083C10.2356 33.5135 10.1721 33.1976 10.1723 32.8787Z" fill="white"/>
</svg>
