<svg width="34" height="33" viewBox="0 0 34 33" fill="none" xmlns="http://www.w3.org/2000/svg">
<path d="M17 0C8.60625 0 0 1.75312 0 14.4375C0 21.2437 2.44375 25.4719 7.4375 27.4312V31.2469C7.4375 31.9688 7.8625 32.5875 8.5 32.8969C8.7125 33 9.03125 33 9.24375 33C9.66875 33 10.2 32.7938 10.5187 32.4844L14.3438 28.7719C15.1938 28.7719 16.0438 28.875 17 28.875C25.3937 28.875 34 27.1219 34 14.4375C34 1.75312 25.3937 0 17 0ZM16.4688 10.5188C18.3813 10.5188 19.975 12.0656 19.975 13.9219C19.975 14.5406 19.55 14.9531 18.9125 14.9531C18.275 14.9531 17.85 14.5406 17.85 13.9219C17.85 13.2 17.2125 12.5813 16.4688 12.5813C15.8313 12.5813 15.4062 12.1687 15.4062 11.55C15.4062 10.9312 15.8313 10.5188 16.4688 10.5188ZM15.4062 8.35313C15.4062 7.73438 15.8313 7.32188 16.4688 7.32188C20.1875 7.32188 23.2687 10.3125 23.2687 13.9219C23.2687 14.5406 22.8438 14.9531 22.2062 14.9531C21.5688 14.9531 21.1437 14.5406 21.1437 13.9219C21.1437 11.4469 19.0187 9.38438 16.4688 9.38438C15.8313 9.38438 15.4062 8.86875 15.4062 8.35313ZM24.1188 21.1406C23.6938 22.3781 22.1 23.4094 20.7188 23.6156C20.4 23.7188 20.0812 23.7188 19.6562 23.7188C18.8062 23.7188 17.5312 23.5125 15.3 22.5844C12.75 21.5531 10.2 19.3875 8.18125 16.6031V16.5C7.54375 15.5719 6.375 13.8188 6.375 11.9625C6.375 9.69375 7.54375 8.55937 7.96875 8.04375C8.60625 7.52813 9.35 7.21875 10.2 7.21875C10.4125 7.21875 10.5188 7.21875 10.7313 7.21875C11.475 7.21875 12.0063 7.425 12.5375 8.45625L12.9625 9.28125C13.2812 10.1062 13.7063 11.0344 13.8125 11.1375C14.1313 11.7563 14.1313 12.2719 13.8125 12.7875C13.7063 13.0969 13.4937 13.3031 13.2812 13.5094C13.175 13.7156 13.0687 13.8187 12.9625 13.8187C12.8562 13.9219 12.8562 13.9219 12.75 14.025C13.0688 14.5406 13.7063 15.4688 14.5562 16.1906C15.8313 17.325 16.7875 17.6344 17.3187 17.8406C17.5312 17.6344 17.7437 17.2219 18.0625 16.9125L18.1688 16.7063C18.7 15.9844 19.55 15.7781 20.4 16.0875C20.825 16.2938 23.1625 17.325 23.1625 17.325L23.375 17.4281C23.6938 17.6344 24.1187 17.7375 24.3312 18.15C24.65 19.0781 24.3313 20.4188 24.1188 21.1406ZM25.5 14.9531C24.8625 14.9531 24.4375 14.5406 24.4375 13.9219C24.4375 9.69375 20.825 6.1875 16.4688 6.1875C15.8313 6.1875 15.4062 5.775 15.4062 5.15625C15.4062 4.5375 15.8313 4.125 16.4688 4.125C21.9937 4.125 26.5625 8.55937 26.5625 13.9219C26.5625 14.5406 26.1375 14.9531 25.5 14.9531Z" fill="#1C3998"/>
</svg>
