<svg width="34" height="33" viewBox="0 0 34 33" fill="none" xmlns="http://www.w3.org/2000/svg">
<g clip-path="url(#clip0_769_862)">
<path fill-rule="evenodd" clip-rule="evenodd" d="M16.9351 32.9999L16.9503 32.9999H16.945L16.9351 32.9999ZM17.055 32.9999H17.0497L17.0649 32.9999L17.055 32.9999ZM16.8831 32.9996L16.8995 32.9997H16.8901L16.8831 32.9996ZM17.1099 32.9997H17.1005L17.1169 32.9996L17.1099 32.9997ZM16.8331 32.9992L16.844 32.9993L16.8352 32.9992H16.8331ZM17.1648 32.9992L17.156 32.9993L17.1669 32.9992H17.1648ZM17.2196 32.9986L17.2158 32.9987L17.2306 32.9985L17.2196 32.9986ZM16.7694 32.9985L16.7842 32.9987L16.7804 32.9986L16.7694 32.9985ZM17.2744 32.9979L17.2654 32.998L17.2837 32.9977L17.2744 32.9979ZM16.7163 32.9977L16.7346 32.998L16.7256 32.9979L16.7163 32.9977ZM17.3291 32.997L17.317 32.9972L17.3339 32.9968L17.3291 32.997ZM16.6661 32.9968L16.683 32.9972L16.6709 32.997L16.6661 32.9968ZM16.6039 32.9956L16.6188 32.9959L16.6162 32.9959L16.6039 32.9956ZM17.3838 32.9959L17.3812 32.9959L17.3961 32.9956L17.3838 32.9959ZM16.5493 32.9943L16.5698 32.9948L16.5615 32.9946L16.5493 32.9943ZM17.4385 32.9946L17.4302 32.9948L17.4507 32.9943L17.4385 32.9946ZM17.4931 32.9932L17.4798 32.9935L17.5008 32.993L17.4931 32.9932ZM16.4992 32.993L16.5202 32.9935L16.5069 32.9932L16.4992 32.993ZM16.4514 32.9916L16.4664 32.992L16.4523 32.9916L16.4394 32.9912L16.4514 32.9916ZM17.5477 32.9916L17.5336 32.992L17.5486 32.9916L17.5606 32.9912L17.5477 32.9916ZM17.6022 32.9898L17.5948 32.9901L17.6177 32.9893L17.6022 32.9898ZM16.3823 32.9893L16.4052 32.9901L16.3978 32.9898L16.3823 32.9893ZM16.3326 32.9875L16.3566 32.9883L16.3432 32.9879L16.3326 32.9875ZM17.6568 32.9879L17.6434 32.9883L17.6674 32.9875L17.6568 32.9879ZM16.2837 32.9856L16.3072 32.9865L16.2889 32.9858L16.2837 32.9856ZM17.7111 32.9858L17.6928 32.9865L17.7163 32.9856L17.7111 32.9858ZM16.2153 32.9827L16.2406 32.9838L16.2344 32.9836L16.2153 32.9827ZM17.7656 32.9836L17.7594 32.9838L17.7847 32.9827L17.7656 32.9836ZM16.1663 32.9805L16.1924 32.9816L16.1801 32.9811L16.1663 32.9805ZM17.8199 32.9811L17.8076 32.9816L17.8337 32.9805L17.8199 32.9811ZM16.1179 32.9781L16.1443 32.9794L16.1258 32.9785L16.1179 32.9781ZM17.8742 32.9785L17.8557 32.9794L17.8821 32.9781L17.8742 32.9785ZM17.9286 32.9758L17.9045 32.977L17.9258 32.9759L17.9509 32.9745L17.9286 32.9758ZM16.0742 32.9759L16.0955 32.977L16.0714 32.9758L16.0491 32.9745L16.0742 32.9759ZM17.9827 32.9728L17.9721 32.9734L17.9991 32.9719L17.9827 32.9728ZM16.0009 32.9719L16.0279 32.9734L16.0173 32.9728L16.0009 32.9719ZM15.953 32.9691L15.9799 32.9707L15.9631 32.9698L15.953 32.9691ZM18.0369 32.9698L18.0201 32.9707L18.047 32.9691L18.0369 32.9698ZM15.9072 32.9664L15.9315 32.9678L15.9089 32.9665L15.8862 32.9651L15.9072 32.9664ZM18.0911 32.9665L18.0685 32.9678L18.0928 32.9664L18.1138 32.9651L18.0911 32.9665ZM18.1452 32.9631L18.1371 32.9636L18.1628 32.9619L18.1452 32.9631ZM15.8372 32.9619L15.8629 32.9636L15.8548 32.9631L15.8372 32.9619ZM15.7893 32.9587L15.8146 32.9604L15.8008 32.9595L15.7893 32.9587ZM18.1992 32.9595L18.1854 32.9604L18.2107 32.9587L18.1992 32.9595ZM15.7416 32.9554L15.7648 32.957L15.7468 32.9558L15.7416 32.9554ZM18.2532 32.9558L18.2352 32.957L18.2584 32.9554L18.2532 32.9558ZM15.6774 32.9507L15.6977 32.9522L15.6928 32.9519L15.6774 32.9507ZM18.3072 32.9519L18.3023 32.9522L18.3226 32.9507L18.3072 32.9519ZM18.3611 32.9478L18.3514 32.9485L18.372 32.9469L18.3611 32.9478ZM15.628 32.9469L15.6486 32.9485L15.6389 32.9478L15.628 32.9469ZM15.5798 32.9431L15.5974 32.9445L15.585 32.9435L15.5798 32.9431ZM18.415 32.9435L18.4026 32.9445L18.4202 32.9431L18.415 32.9435ZM15.5268 32.9388L15.5321 32.9392L15.5312 32.9392L15.5268 32.9388ZM18.4688 32.9392L18.4679 32.9392L18.4732 32.9388L18.4688 32.9392ZM18.5226 32.9346L18.5178 32.935L18.5298 32.9339L18.5226 32.9346ZM15.4702 32.9339L15.4822 32.935L15.4774 32.9346L15.4702 32.9339ZM15.4204 32.9296L15.4294 32.9304L15.4238 32.9299L15.4204 32.9296ZM18.5762 32.9299L18.5706 32.9304L18.5796 32.9296L18.5762 32.9299ZM14.3438 32.7994C6.221 31.5602 0 24.7296 0 16.5C0 7.39342 7.61746 0 17 0C26.3825 0 34 7.39342 34 16.5C34 24.7296 27.779 31.5602 19.6562 32.7994V21.2695H23.6174L24.3711 16.5H19.6562V13.4049C19.6562 12.1 20.3149 10.8281 22.4267 10.8281H24.5703V6.76758C24.5703 6.76758 22.6249 6.44531 20.7649 6.44531C16.8817 6.44531 14.3438 8.72953 14.3438 12.8648V16.5H10.0273V21.2695H14.3438V32.7994Z" fill="#1C3998"/>
</g>
<defs>
<clipPath id="clip0_769_862">
<rect width="34" height="33" fill="white"/>
</clipPath>
</defs>
</svg>
