<svg width="34" height="34" viewBox="0 0 34 34" fill="none" xmlns="http://www.w3.org/2000/svg">
<path d="M16.8326 20.0549C18.4612 20.0549 19.7815 18.7347 19.7815 17.1061C19.7815 15.4775 18.4612 14.1572 16.8326 14.1572C15.204 14.1572 13.8838 15.4775 13.8838 17.1061C13.8838 18.7347 15.204 20.0549 16.8326 20.0549Z" fill="#1C3998"/>
<path d="M20.5179 9.86816H13.1458C12.0735 9.86816 11.1352 10.2033 10.532 10.8064C9.92885 11.4096 9.59375 12.3479 9.59375 13.4202V20.7923C9.59375 21.8646 9.92885 22.8029 10.599 23.4731C11.2692 24.0763 12.1405 24.4114 13.2128 24.4114H20.5179C21.5902 24.4114 22.5285 24.0763 23.1317 23.4731C23.8019 22.8699 24.137 21.9317 24.137 20.8593V13.4872C24.137 12.4149 23.8019 11.5436 23.1987 10.8735C22.5285 10.2033 21.6572 9.86816 20.5179 9.86816ZM16.8318 21.6636C14.2851 21.6636 12.2745 19.586 12.2745 17.1063C12.2745 14.5595 14.3521 12.5489 16.8318 12.5489C19.3116 12.5489 21.4562 14.5595 21.4562 17.1063C21.4562 19.653 19.3786 21.6636 16.8318 21.6636ZM21.5902 13.4202C20.9871 13.4202 20.5179 12.9511 20.5179 12.3479C20.5179 11.7447 20.9871 11.2756 21.5902 11.2756C22.1934 11.2756 22.6625 11.7447 22.6625 12.3479C22.6625 12.9511 22.1934 13.4202 21.5902 13.4202Z" fill="#1C3998"/>
<path d="M16.9663 0.485352C7.85162 0.485352 0.479492 7.85748 0.479492 16.9721C0.479492 26.0868 7.85162 33.4589 16.9663 33.4589C26.0809 33.4589 33.453 26.0868 33.453 16.9721C33.5201 7.85748 26.0809 0.485352 16.9663 0.485352ZM25.7458 20.8592C25.7458 22.4007 25.2096 23.7411 24.2714 24.6794C23.3331 25.6176 21.9927 26.0868 20.5183 26.0868H13.2132C11.7388 26.0868 10.3984 25.6176 9.46009 24.6794C8.4548 23.7411 7.98566 22.4007 7.98566 20.8592V13.4871C7.98566 10.4042 10.0633 8.2596 13.2132 8.2596H20.5853C22.1268 8.2596 23.4001 8.79576 24.3384 9.73403C25.2767 10.6723 25.7458 11.9457 25.7458 13.4871V20.8592V20.8592Z" fill="#1C3998"/>
</svg>
