<svg width="63" height="63" viewBox="0 0 63 63" fill="none" xmlns="http://www.w3.org/2000/svg">
<path d="M31.1865 37.0759C34.2294 37.0759 36.6961 34.6091 36.6961 31.5662C36.6961 28.5232 34.2294 26.0565 31.1865 26.0565C28.1435 26.0565 25.6768 28.5232 25.6768 31.5662C25.6768 34.6091 28.1435 37.0759 31.1865 37.0759Z" fill="white"/>
<path d="M38.074 18.0422H24.2998C22.2962 18.0422 20.5432 18.6683 19.4162 19.7953C18.2892 20.9223 17.6631 22.6754 17.6631 24.6789V38.4532C17.6631 40.4567 18.2892 42.2098 19.5414 43.462C20.7936 44.589 22.4215 45.2151 24.425 45.2151H38.074C40.0776 45.2151 41.8306 44.589 42.9576 43.462C44.2098 42.335 44.8359 40.5819 44.8359 38.5784V24.8041C44.8359 22.8006 44.2098 21.1727 43.0828 19.9205C41.8306 18.6683 40.2028 18.0422 38.074 18.0422ZM31.1869 40.081C26.4285 40.081 22.6719 36.1992 22.6719 31.566C22.6719 26.8077 26.5537 23.0511 31.1869 23.0511C35.8201 23.0511 39.8271 26.8077 39.8271 31.566C39.8271 36.3244 35.9453 40.081 31.1869 40.081ZM40.0776 24.6789C38.9506 24.6789 38.074 23.8024 38.074 22.6754C38.074 21.5484 38.9506 20.6719 40.0776 20.6719C41.2045 20.6719 42.0811 21.5484 42.0811 22.6754C42.0811 23.8024 41.2045 24.6789 40.0776 24.6789Z" fill="white"/>
<path d="M31.437 0.511475C14.4071 0.511475 0.632812 14.2857 0.632812 31.3157C0.632812 48.3457 14.4071 62.1199 31.437 62.1199C48.467 62.1199 62.2413 48.3457 62.2413 31.3157C62.3665 14.2857 48.467 0.511475 31.437 0.511475ZM47.8409 38.5785C47.8409 41.4586 46.8392 43.963 45.0861 45.7161C43.333 47.4691 40.8286 48.3457 38.0737 48.3457H24.4247C21.6698 48.3457 19.1654 47.4691 17.4124 45.7161C15.534 43.963 14.6575 41.4586 14.6575 38.5785V24.8042C14.6575 19.0441 18.5393 15.037 24.4247 15.037H38.1989C41.079 15.037 43.4582 16.0388 45.2113 17.7919C46.9644 19.545 47.8409 21.9242 47.8409 24.8042V38.5785Z" fill="white"/>
</svg>
