<svg width="24" height="24" viewBox="0 0 24 24" fill="none" xmlns="http://www.w3.org/2000/svg">
<path d="M1.99958 16.9201V19.9201C1.99845 20.1986 2.0555 20.4743 2.16707 20.7294C2.27864 20.9846 2.44228 21.2137 2.6475 21.402C2.85272 21.5902 3.095 21.7336 3.35883 21.8228C3.62265 21.912 3.90221 21.9452 4.17958 21.9201C7.25674 21.5857 10.2126 20.5342 12.8096 18.8501C15.2258 17.3148 17.2742 15.2663 18.8096 12.8501C20.4996 10.2413 21.5513 7.27109 21.8796 4.1801C21.9046 3.90356 21.8717 3.62486 21.7831 3.36172C21.6945 3.09859 21.552 2.85679 21.3648 2.65172C21.1776 2.44665 20.9498 2.28281 20.6958 2.17062C20.4418 2.05843 20.1672 2.00036 19.8896 2.0001H16.8896C16.4043 1.99532 15.9338 2.16718 15.5658 2.48363C15.1978 2.80008 14.9575 3.23954 14.8896 3.7201C14.763 4.68016 14.5281 5.62282 14.1896 6.5301C14.055 6.88802 14.0259 7.27701 14.1057 7.65098C14.1854 8.02494 14.3707 8.36821 14.6396 8.6401L15.9096 9.9101C14.486 12.4136 12.4131 14.4865 9.90958 15.9101L8.63958 14.6401C8.36769 14.3712 8.02442 14.1859 7.65046 14.1062C7.27649 14.0264 6.8875 14.0556 6.52958 14.1901C5.62231 14.5286 4.67964 14.7635 3.71958 14.8901C3.23381 14.9586 2.79018 15.2033 2.47305 15.5776C2.15591 15.9519 1.98741 16.4297 1.99958 16.9201Z" stroke="white" stroke-width="2" stroke-linecap="round" stroke-linejoin="round"/>
</svg>
