<svg width="21" height="26" viewBox="0 0 21 26" fill="none" xmlns="http://www.w3.org/2000/svg">
<path d="M20.7991 23.5804L20.0907 6.03918C20.0782 4.74421 19.1085 3.69375 17.9183 3.69375H14.3176C14.0254 1.62693 12.3788 0 10.3975 0C8.41569 0 6.76866 1.62693 6.47638 3.69375H2.88059C1.69077 3.69375 0.721344 4.74424 0.708862 6.03923L0.000893582 23.5799C0.000307169 23.5947 0 23.6098 0 23.6248C0 24.9344 0.974521 26 2.17241 26H18.6277C19.8255 26 20.8 24.9347 20.8 23.625C20.8 23.6101 20.7997 23.5953 20.7991 23.5804ZM10.3975 2.02304C11.3574 2.02304 12.1699 2.72922 12.4307 3.69373H8.36334C8.62424 2.72923 9.43718 2.02304 10.3975 2.02304ZM18.6277 23.9791H2.17241C1.99354 23.9791 1.85244 23.8315 1.84528 23.6414L2.5528 6.111C2.5534 6.09613 2.55369 6.07868 2.55369 6.06378C2.55369 5.86943 2.69726 5.71463 2.88057 5.71463H6.42262V9.4113C6.42262 9.96995 6.83465 10.4228 7.34413 10.4228C7.85361 10.4228 8.26564 9.96995 8.26564 9.4113V5.71463H12.5102V9.4113C12.5102 9.96995 12.9222 10.4228 13.4317 10.4228C13.9411 10.4228 14.3532 9.96995 14.3532 9.4113V5.71463H17.9183C18.102 5.71463 18.2458 5.86918 18.2458 6.06354C18.2458 6.07845 18.2461 6.09451 18.2467 6.10944L18.9547 23.6409C18.9475 23.8309 18.8065 23.9791 18.6277 23.9791Z" fill="white"/>
</svg>
