<svg width="24" height="30" viewBox="0 0 24 30" fill="none" xmlns="http://www.w3.org/2000/svg">
<path d="M23.4993 27.2284L23.4994 27.2288C23.4998 27.2389 23.5 27.2492 23.5 27.2602C23.4998 28.5378 22.5583 29.5 21.4935 29.5H2.50663C1.44167 29.5 0.5 28.5373 0.5 27.2593C0.5 27.249 0.500214 27.2382 0.500635 27.2274C0.500638 27.2273 0.500641 27.2273 0.500643 27.2272L1.31751 6.9885L1.31782 6.98083L1.31789 6.97316C1.33006 5.71122 2.26531 4.76202 3.32376 4.76202H7.47274H7.90701L7.96782 4.33203C8.27622 2.15122 10.0003 0.5 11.9971 0.5C13.9932 0.5 15.7169 2.1511 16.0252 4.33201L16.086 4.76202H16.5203H20.675C21.734 4.76202 22.6694 5.71134 22.6816 6.97312L22.6817 6.98079L22.682 6.98846L23.4993 27.2284ZM14.3431 4.762H14.9962L14.8257 4.13151C14.4755 2.83594 13.3652 1.83428 11.9971 1.83428C10.6287 1.83428 9.51784 2.83577 9.16736 4.13144L8.99679 4.762H9.65001H14.3431ZM1.62957 27.2583L1.62878 27.2778L1.62952 27.2973C1.6466 27.7506 1.99798 28.1682 2.50663 28.1682H21.4935C22.0031 28.1682 22.3534 27.7487 22.3704 27.2968L22.3712 27.2772L22.3704 27.2577L21.5535 7.02927C21.5535 7.02924 21.5535 7.02921 21.5535 7.02918C21.5531 7.01929 21.5529 7.00752 21.5529 6.99639C21.5529 6.52751 21.1935 6.0938 20.675 6.0938H16.5613H16.0613V6.5938V10.8592C16.0613 11.2727 15.7668 11.5263 15.4981 11.5263C15.2294 11.5263 14.9348 11.2727 14.9348 10.8592V6.5938V6.0938H14.4348H9.53727H9.03727V6.5938V10.8592C9.03727 11.2727 8.7427 11.5263 8.474 11.5263C8.20529 11.5263 7.91072 11.2727 7.91072 10.8592V6.5938V6.0938H7.41072H3.32374C2.80425 6.0938 2.44657 6.52922 2.44657 6.99667C2.44657 7.00841 2.44632 7.02171 2.44594 7.03098L2.44594 7.03099L1.62957 27.2583Z" fill="#363636" stroke="black"/>
</svg>
