<svg width="34" height="33" viewBox="0 0 34 33" fill="none" xmlns="http://www.w3.org/2000/svg">
<path d="M17 0C7.61115 0 0 7.3873 0 16.5C0 25.6127 7.61115 33 17 33C26.3888 33 34 25.6127 34 16.5C34 7.3873 26.3888 0 17 0ZM25.8359 10.4373L22.8166 24.4277C22.7801 24.597 22.7003 24.7545 22.5846 24.886C22.469 25.0175 22.3211 25.1187 22.1547 25.1803C21.9882 25.2418 21.8085 25.2618 21.632 25.2383C21.4555 25.2149 21.288 25.1488 21.1447 25.046L16.7528 21.8968L14.0921 24.3331C14.0572 24.365 14.0162 24.3898 13.9714 24.4062C13.9266 24.4225 13.8788 24.43 13.831 24.4283C13.7831 24.4265 13.7361 24.4155 13.6927 24.3959C13.6493 24.3763 13.6103 24.3485 13.5781 24.3142L13.5209 24.2532L13.9832 19.9107L22.3162 12.5211C22.3574 12.4846 22.383 12.4344 22.388 12.3805C22.393 12.3266 22.3769 12.2728 22.3431 12.2298C22.3092 12.1868 22.26 12.1576 22.2051 12.1481C22.1502 12.1386 22.0936 12.1494 22.0465 12.1784L11.3897 18.7249L6.8 17.2288C6.67796 17.189 6.5716 17.1135 6.49551 17.0127C6.41941 16.9119 6.37731 16.7908 6.37498 16.6658C6.37266 16.5409 6.41021 16.4183 6.4825 16.3149C6.55479 16.2115 6.65828 16.1324 6.77875 16.0883L24.7363 9.52256C24.8749 9.47197 25.0248 9.45842 25.1706 9.48334C25.3164 9.50825 25.4526 9.57072 25.5649 9.6642C25.6773 9.75768 25.7618 9.87875 25.8094 10.0147C25.8571 10.1507 25.8663 10.2967 25.8359 10.4373Z" fill="#1C3998"/>
</svg>
