<svg width="34" height="33" viewBox="0 0 34 33" fill="none" xmlns="http://www.w3.org/2000/svg">
<path fill-rule="evenodd" clip-rule="evenodd" d="M17 0C26.3825 0 34 7.39342 34 16.5C34 25.6066 26.3825 33 17 33C7.61746 33 0 25.6066 0 16.5C0 7.39342 7.61746 0 17 0ZM25.0702 8.69112C23.0351 6.71421 20.3287 5.62502 17.4453 5.62392C11.504 5.62392 6.66858 10.3153 6.66626 16.0818C6.66546 17.9251 7.16178 19.7245 8.10502 21.3104L6.57581 26.73L12.2899 25.2757C13.8643 26.1089 15.6369 26.5479 17.4409 26.5487H17.4454C23.386 26.5487 28.2219 21.8567 28.2242 16.0901C28.2254 13.2956 27.1052 10.6679 25.0702 8.69112ZM17.4453 24.7823H17.4417C15.8341 24.7816 14.2574 24.3626 12.8818 23.5706L12.5546 23.3822L9.16386 24.2453L10.0689 21.0375L9.85588 20.7087C8.95907 19.3247 8.48546 17.7249 8.48612 16.0825C8.48811 11.2896 12.5072 7.39026 17.4489 7.39026C19.8419 7.39116 22.0912 8.2966 23.7827 9.93964C25.4742 11.5827 26.4053 13.7668 26.4043 16.0895C26.4023 20.8827 22.3834 24.7822 17.4453 24.7823ZM22.3596 18.2719C22.0902 18.1411 20.7661 17.5089 20.5191 17.4217C20.2723 17.3345 20.0928 17.2908 19.9132 17.5525C19.7337 17.8141 19.2175 18.4027 19.0604 18.5771C18.9033 18.7515 18.7462 18.7734 18.4769 18.6425C18.2075 18.5118 17.3397 18.2358 16.311 17.3454C15.5104 16.6526 14.9698 15.7967 14.8127 15.5351C14.6557 15.2735 14.796 15.1321 14.9308 15.0018C15.052 14.8847 15.2001 14.6966 15.3348 14.544C15.4695 14.3914 15.5144 14.2824 15.6041 14.108C15.6939 13.9335 15.649 13.781 15.5817 13.6501C15.5144 13.5194 14.9757 12.2331 14.7513 11.7098C14.5327 11.2003 14.3107 11.2692 14.1453 11.2613C13.9884 11.2536 13.8087 11.252 13.6292 11.252C13.4496 11.252 13.1579 11.3175 12.9109 11.5791C12.6641 11.8407 11.9683 12.4729 11.9683 13.7591C11.9683 15.0454 12.9334 16.288 13.0681 16.4625C13.2028 16.6369 14.9672 19.2764 17.669 20.4084C18.3115 20.6776 18.8132 20.8384 19.2044 20.9589C19.8496 21.1577 20.4367 21.1297 20.9008 21.0624C21.4182 20.9874 22.4943 20.4302 22.7186 19.8198C22.943 19.2094 22.943 18.6861 22.8758 18.5771C22.8084 18.4681 22.6289 18.4027 22.3596 18.2719Z" fill="#1C3998"/>
</svg>
